<svg width="113" height="27" viewBox="0 0 113 27" fill="none" xmlns="http://www.w3.org/2000/svg">
<circle cx="13.0414" cy="13.2987" r="13.0414" fill="#FF0000"/>
<path fill-rule="evenodd" clip-rule="evenodd" d="M32.248 3.37402V0.0908203H48.8299V3.37402H42.4293V22.8079H38.715V3.37402H32.248ZM49.7341 8.01693C50.8838 6.57984 52.7851 5.86129 55.4382 5.86129C58.0913 5.86129 59.9816 6.57984 61.1092 8.01693C62.2589 9.45402 62.8337 11.6097 62.8337 14.4838C62.8337 17.358 62.281 19.5247 61.1755 20.9839C60.0701 22.4431 58.1576 23.1727 55.4382 23.1727C52.7188 23.1727 50.8064 22.4431 49.7009 20.9839C48.5955 19.5247 48.0427 17.358 48.0427 14.4838C48.0427 11.6097 48.6065 9.45402 49.7341 8.01693ZM52.4535 18.7951C52.962 19.6795 53.9569 20.1217 55.4382 20.1217C56.9195 20.1217 57.9144 19.6795 58.423 18.7951C58.9315 17.9107 59.1857 16.4626 59.1857 14.4507C59.1857 12.4387 58.9094 11.0127 58.3566 10.1726C57.826 9.33242 56.8532 8.91234 55.4382 8.91234C54.0232 8.91234 53.0394 9.33242 52.4867 10.1726C51.956 11.0127 51.6907 12.4387 51.6907 14.4507C51.6907 16.4626 51.945 17.9107 52.4535 18.7951ZM66.4245 22.8079H70.0393V16.0425L72.1949 15.8104L76.2409 22.8079H80.32L75.2791 13.9864L80.0547 6.22609H76.0087L72.0954 12.693L70.0393 12.892V0.0908257H66.4245V22.8079ZM81.4484 6.22609H84.9969L88.5122 19.7237H89.4076L92.923 6.22609H96.5046L91.1596 26.3403H87.6591L88.6449 22.8079H85.7928L81.4484 6.22609ZM105.605 5.86129C102.952 5.86129 101.05 6.57984 99.9005 8.01693C98.773 9.45402 98.2092 11.6097 98.2092 14.4838C98.2092 17.358 98.7619 19.5247 99.8674 20.9839C100.973 22.4431 102.885 23.1727 105.605 23.1727C108.324 23.1727 110.237 22.4431 111.342 20.9839C112.447 19.5247 113 17.358 113 14.4838C113 11.6097 112.425 9.45402 111.276 8.01693C110.148 6.57984 108.258 5.86129 105.605 5.86129ZM105.605 20.1217C104.123 20.1217 103.128 19.6795 102.62 18.7951C102.111 17.9107 101.857 16.4626 101.857 14.4507C101.857 12.4387 102.123 11.0127 102.653 10.1726C103.206 9.33242 104.19 8.91234 105.605 8.91234C107.02 8.91234 107.992 9.33242 108.523 10.1726C109.076 11.0127 109.352 12.4387 109.352 14.4507C109.352 16.4626 109.098 17.9107 108.589 18.7951C108.081 19.6795 107.086 20.1217 105.605 20.1217Z" fill="white"/>
</svg>
